# xmcd
#
# Track frame offsets:
#	150
#	13977
#	33017
#	47917
#	64032
#	77700
#	91032
#	104522
#	119055
#	136720
#	153512
#	165992
#	179682
#	194505
#
# Disc length: 2774 seconds
#
# Revision: 2437007220
# Processed by: cddbd v1.5.2PL0 Copyright (c) Steve Scherf et al.
# Submitted via: EZCDAudioConverter 8.3.2.1
#
DISCID=b70ad40e
DTITLE=Various Artist - DANSBAND KLASSIKER
DYEAR=1
DGENRE=Country
TTITLE0=VIKINGARNA - HE'LL HAVE TO GO
TTITLE1=SÄWES - EFTER PLUGGET
TTITLE2=OKÄND - ÄR DU RÄDD ATT BLI ENSAM
TTITLE3=VIKINGARNA - SMILE
TTITLE4=SCHYTTS - I DON'T WANT TO BE ALONE TONIGHT
TTITLE5=THOR-ERICS - BLUE JEANS BABY
TTITLE6=SCHYTTS - ATT FINNAS TILL
TTITLE7=VIKINGARNA - LEVER I EN DRÖMVÄRLD
TTITLE8=WIZEX - JAG VÄNTAR PÅ DIG
TTITLE9=SCHYTTS - DU ÄR SOM EN SOMMARDAG
TTITLE10=VIKINGARNA - MADELENE
TTITLE11=THE CHINOX - SHAMA-LAMA-DING-DONG
TTITLE12=THOR-ERICS - DET ÄR MIN GITARR
TTITLE13=SÄWES - DRÖMMAR OCH FANTASIER
EXTD=
EXTT0=
EXTT1=
EXTT2=
EXTT3=
EXTT4=
EXTT5=
EXTT6=
EXTT7=
EXTT8=
EXTT9=
EXTT10=
EXTT11=
EXTT12=
EXTT13=
PLAYORDER=
